{
  "accessors": [
    {
      "bufferView": 0,
      "byteOffset": 0,
      "componentType": 5123,
      "count": 22068,
      "max": [
        5101.0
      ],
      "min": [
        0.0
      ],
      "name": "buffer-0-group-0-mesh-0-indices",
      "type": "SCALAR"
    },
    {
      "bufferView": 1,
      "byteOffset": 0,
      "componentType": 5126,
      "count": 5102,
      "max": [
        -0.08410070091485977,
        0.22599700093269348,
        0.003388510085642338
      ],
      "min": [
        -0.15521399676799774,
        0.0,
        -0.06772489845752716
      ],
      "name": "buffer-0-group-0-mesh-0-position",
      "type": "VEC3"
    },
    {
      "bufferView": 1,
      "byteOffset": 61224,
      "componentType": 5126,
      "count": 5102,
      "max": [
        0.9238797426223755,
        1.0,
        1.0
      ],
      "min": [
        -0.9914448857307434,
        -1.0,
        -1.0
      ],
      "name": "buffer-0-group-0-mesh-0-normal",
      "type": "VEC3"
    },
    {
      "bufferView": 2,
      "byteOffset": 0,
      "componentType": 5126,
      "count": 5102,
      "max": [
        0.7474179863929749,
        -0.014104699715971947
      ],
      "min": [
        0.23853300511837006,
        -0.9854130148887634
      ],
      "name": "buffer-0-group-0-mesh-0-texcoord",
      "type": "VEC2"
    }
  ],
  "asset": {
    "generator": "Obj2GltfConverter",
    "version": "2.0"
  },
  "bufferViews": [
    {
      "buffer": 0,
      "byteLength": 44136,
      "byteOffset": 0,
      "name": "buffer-0-bufferview-ushort",
      "target": 34963
    },
    {
      "buffer": 0,
      "byteLength": 122448,
      "byteOffset": 44136,
      "byteStride": 12,
      "name": "buffer-0-bufferview-vec3",
      "target": 34962
    },
    {
      "buffer": 0,
      "byteLength": 40816,
      "byteOffset": 166584,
      "byteStride": 8,
      "name": "buffer-0-bufferview-vec2",
      "target": 34962
    }
  ],
  "buffers": [
    {
      "byteLength": 207400,
      "name": "buffer-0",
      "uri": "AbVodka.bin"
    }
  ],
  "images": [
    {
      "mimeType": "image/jpeg",
      "name": "absolut_vodka_gif-diffuse-image",
      "uri": "AbVodka.jpg"
    }
  ],
  "materials": [
    {
      "alphaMode": "OPAQUE",
      "doubleSided": true,
      "name": "absolut_vodka_gif",
      "pbrMetallicRoughness": {
        "baseColorFactor": [
          0.905882,
          0.913725,
          0.917647,
          1.0
        ],
        "baseColorTexture": {
          "index": 0,
          "texCoord": 0
        },
        "metallicFactor": 0.0,
        "roughnessFactor": 0.9699476628648295
      }
    }
  ],
  "meshes": [
    {
      "name": "buffer-0-mesh-0",
      "primitives": [
        {
          "attributes": {
            "POSITION": 1,
            "NORMAL": 2,
            "TEXCOORD_0": 3
          },
          "indices": 0,
          "material": 0,
          "mode": 4
        }
      ]
    }
  ],
  "nodes": [
    {
      "mesh": 0,
      "name": "node-0"
    }
  ],
  "samplers": [
    {
      "name": "abvodka-diffuse-sampler",
      "wrapS": 10497,
      "wrapT": 10497
    }
  ],
  "scenes": [
    {
      "name": "scene-0",
      "nodes": [
        0
      ]
    }
  ],
  "textures": [
    {
      "name": "absolut_vodka_gif-diffuse-texture",
      "sampler": 0,
      "source": 0
    }
  ]
}