{
  "accessors": [
    {
      "bufferView": 2,
      "componentType": 5126,
      "count": 65532,
      "max": [
        12.248414993286133,
        18.948879241943359,
        15.701068878173828
      ],
      "min": [
        -6.6565132141113281,
        14.238213539123535,
        -4.0926542282104492
      ],
      "type": "VEC3"
    },
    {
      "bufferView": 2,
      "byteOffset": 786384,
      "componentType": 5126,
      "count": 65532,
      "max": [
        0.99997347593307495,
        0.99852132797241211,
        0.99072885513305664
      ],
      "min": [
        -0.99715983867645264,
        -0.99999922513961792,
        -0.98342782258987427
      ],
      "type": "VEC3"
    },
    {
      "bufferView": 3,
      "componentType": 5126,
      "count": 65532,
      "max": [
        0.99999773502349854,
        0.9767535924911499,
        0.99999958276748657,
        1
      ],
      "min": [
        -0.99999141693115234,
        -0.99642062187194824,
        -0.99999821186065674,
        -1
      ],
      "type": "VEC4"
    },
    {
      "bufferView": 3,
      "byteOffset": 1048512,
      "componentType": 5126,
      "count": 65532,
      "max": [
        1,
        1,
        1,
        1
      ],
      "min": [
        1,
        1,
        1,
        1
      ],
      "type": "VEC4"
    },
    {
      "bufferView": 1,
      "componentType": 5126,
      "count": 65532,
      "max": [
        0.99313497543334961,
        0.99931299686431885
      ],
      "min": [
        0.0015069999499246478,
        0.003742000088095665
      ],
      "type": "VEC2"
    },
    {
      "bufferView": 0,
      "componentType": 5125,
      "count": 312861,
      "max": [
        65531
      ],
      "min": [
        0
      ],
      "type": "SCALAR"
    },
    {
      "bufferView": 2,
      "byteOffset": 1572768,
      "componentType": 5126,
      "count": 65532,
      "max": [
        8.7671756744384766,
        17.622358322143555,
        15.480815887451172
      ],
      "min": [
        -5.7543258666992188,
        14.13565731048584,
        -4.0634698867797852
      ],
      "type": "VEC3"
    },
    {
      "bufferView": 2,
      "byteOffset": 2359152,
      "componentType": 5126,
      "count": 65532,
      "max": [
        0.99934780597686768,
        0.99318653345108032,
        0.99759000539779663
      ],
      "min": [
        -0.99129986763000488,
        -0.99999922513961792,
        -0.99898409843444824
      ],
      "type": "VEC3"
    },
    {
      "bufferView": 3,
      "byteOffset": 2097024,
      "componentType": 5126,
      "count": 65532,
      "max": [
        0.99998992681503296,
        0.99965739250183105,
        0.9999956488609314,
        1
      ],
      "min": [
        -1,
        -0.98757642507553101,
        -1,
        -1
      ],
      "type": "VEC4"
    },
    {
      "bufferView": 3,
      "byteOffset": 3145536,
      "componentType": 5126,
      "count": 65532,
      "max": [
        1,
        1,
        1,
        1
      ],
      "min": [
        1,
        1,
        1,
        1
      ],
      "type": "VEC4"
    },
    {
      "bufferView": 1,
      "byteOffset": 524256,
      "componentType": 5126,
      "count": 65532,
      "max": [
        0.99329400062561035,
        0.99951201677322388
      ],
      "min": [
        0.0038980001118034124,
        0.0036400000099092722
      ],
      "type": "VEC2"
    },
    {
      "bufferView": 0,
      "byteOffset": 1251444,
      "componentType": 5125,
      "count": 329820,
      "max": [
        65531
      ],
      "min": [
        0
      ],
      "type": "SCALAR"
    },
    {
      "bufferView": 2,
      "byteOffset": 3145536,
      "componentType": 5126,
      "count": 51267,
      "max": [
        1.9261449575424194,
        16.389471054077148,
        15.390506744384766
      ],
      "min": [
        -6.6893281936645508,
        14.025821685791016,
        -4.0600228309631348
      ],
      "type": "VEC3"
    },
    {
      "bufferView": 2,
      "byteOffset": 3760740,
      "componentType": 5126,
      "count": 51267,
      "max": [
        0.99915784597396851,
        0.99830937385559082,
        0.99765849113464355
      ],
      "min": [
        -0.99756574630737305,
        -0.99999755620956421,
        -0.9998394250869751
      ],
      "type": "VEC3"
    },
    {
      "bufferView": 3,
      "byteOffset": 4194048,
      "componentType": 5126,
      "count": 51267,
      "max": [
        0.99999386072158813,
        0.99911677837371826,
        0.99991166591644287,
        1
      ],
      "min": [
        -0.99999129772186279,
        -0.9972197413444519,
        -0.99999946355819702,
        -1
      ],
      "type": "VEC4"
    },
    {
      "bufferView": 3,
      "byteOffset": 5014320,
      "componentType": 5126,
      "count": 51267,
      "max": [
        1,
        1,
        1,
        1
      ],
      "min": [
        1,
        1,
        1,
        1
      ],
      "type": "VEC4"
    },
    {
      "bufferView": 1,
      "byteOffset": 1048512,
      "componentType": 5126,
      "count": 51267,
      "max": [
        0.9905400276184082,
        0.99940598011016846
      ],
      "min": [
        0.0037670000456273556,
        0.0035739999730139971
      ],
      "type": "VEC2"
    },
    {
      "bufferView": 0,
      "byteOffset": 2570724,
      "componentType": 5125,
      "count": 257304,
      "max": [
        51266
      ],
      "min": [
        0
      ],
      "type": "SCALAR"
    }
  ],
  "asset": {
    "extras": {
      "author": "danielpett (https://sketchfab.com/danielpett)",
      "license": "CC-BY-4.0 (http://creativecommons.org/licenses/by/4.0/)",
      "source": "https://sketchfab.com/models/074c2403d812451bae9dc5c0be7f4cfd",
      "title": "Yaxchilan lintel 15"
    },
    "generator": "Sketchfab-3.18.5",
    "version": "2.0"
  },
  "bufferViews": [
    {
      "buffer": 0,
      "byteLength": 3599940,
      "byteOffset": 0,
      "name": "floatBufferViews",
      "target": 34963
    },
    {
      "buffer": 0,
      "byteLength": 1458648,
      "byteOffset": 3599940,
      "byteStride": 8,
      "name": "floatBufferViews",
      "target": 34962
    },
    {
      "buffer": 0,
      "byteLength": 4375944,
      "byteOffset": 5058588,
      "byteStride": 12,
      "name": "floatBufferViews",
      "target": 34962
    },
    {
      "buffer": 0,
      "byteLength": 5834592,
      "byteOffset": 9434532,
      "byteStride": 16,
      "name": "floatBufferViews",
      "target": 34962
    }
  ],
  "buffers": [
    {
      "byteLength": 15269124,
      "uri": "art1_scene.bin"
    }
  ],
  "extensionsUsed": [
    "KHR_materials_unlit"
  ],
  "images": [
    {
      "uri": "art1_material_0_baseColor.jpeg"
    }
  ],
  "materials": [
    {
      "doubleSided": true,
      "emissiveFactor": [
        0,
        0,
        0
      ],
      "extensions": {
        "KHR_materials_unlit": {}
      },
      "name": "material_0",
      "pbrMetallicRoughness": {
        "baseColorFactor": [
          1,
          1,
          1,
          1
        ],
        "baseColorTexture": {
          "index": 0,
          "texCoord": 0
        },
        "metallicFactor": 0,
        "roughnessFactor": 1
      }
    }
  ],
  "meshes": [
    {
      "primitives": [
        {
          "attributes": {
            "COLOR_0": 3,
            "NORMAL": 1,
            "POSITION": 0,
            "TANGENT": 2,
            "TEXCOORD_0": 4
          },
          "indices": 5,
          "material": 0,
          "mode": 4
        }
      ]
    },
    {
      "primitives": [
        {
          "attributes": {
            "COLOR_0": 9,
            "NORMAL": 7,
            "POSITION": 6,
            "TANGENT": 8,
            "TEXCOORD_0": 10
          },
          "indices": 11,
          "material": 0,
          "mode": 4
        }
      ]
    },
    {
      "primitives": [
        {
          "attributes": {
            "COLOR_0": 15,
            "NORMAL": 13,
            "POSITION": 12,
            "TANGENT": 14,
            "TEXCOORD_0": 16
          },
          "indices": 17,
          "material": 0,
          "mode": 4
        }
      ]
    }
  ],
  "nodes": [
    {
      "children": [
        1
      ],
      "name": "RootNode (gltf orientation matrix)",
      "rotation": [
        -0.70710678118654746,
        -0,
        -0,
        0.70710678118654757
      ]
    },
    {
      "children": [
        2
      ],
      "matrix": [
        0.99335378408432007,
        -0.11467178910970688,
        0.00993355643004179,
        0,
        0.11094234138727188,
        0.93089962005615234,
        -0.34801974892616272,
        0,
        0.030660903081297874,
        0.3468087911605835,
        0.93743455410003662,
        0,
        -1.9059169292449951,
        -1.0101324319839478,
        5.9562501907348633,
        1
      ],
      "name": "RootNode (model correction matrix)"
    },
    {
      "children": [
        3,
        4,
        5
      ],
      "name": "mayaLintelTwo.obj.cleaner.materialmerger.gles"
    },
    {
      "mesh": 0,
      "name": ""
    },
    {
      "mesh": 1,
      "name": ""
    },
    {
      "mesh": 2,
      "name": ""
    }
  ],
  "samplers": [
    {
      "magFilter": 9729,
      "minFilter": 9987,
      "wrapS": 10497,
      "wrapT": 10497
    }
  ],
  "scene": 0,
  "scenes": [
    {
      "name": "OSG_Scene",
      "nodes": [
        0
      ]
    }
  ],
  "textures": [
    {
      "sampler": 0,
      "source": 0
    }
  ]
}

