{
  "accessors": [
    {
      "bufferView": 2,
      "componentType": 5126,
      "count": 13067,
      "max": [
        11.552511215209961,
        18.770492553710938,
        34.506656646728516
      ],
      "min": [
        -14.559803009033203,
        -12.507833480834961,
        2.0698091983795166
      ],
      "type": "VEC3"
    },
    {
      "bufferView": 2,
      "byteOffset": 156804,
      "componentType": 5126,
      "count": 13067,
      "max": [
        0.99999493360519409,
        0.99999988079071045,
        0.99999994039535522
      ],
      "min": [
        -0.99999916553497314,
        -0.99999898672103882,
        -0.99697917699813843
      ],
      "type": "VEC3"
    },
    {
      "bufferView": 3,
      "componentType": 5126,
      "count": 13067,
      "max": [
        0.99996107816696167,
        0.99996906518936157,
        0.99999934434890747,
        1
      ],
      "min": [
        -0.99966263771057129,
        -0.99709486961364746,
        -0.99998253583908081,
        -1
      ],
      "type": "VEC4"
    },
    {
      "bufferView": 1,
      "componentType": 5126,
      "count": 13067,
      "max": [
        0.9538886547088623,
        0.99924486875534058
      ],
      "min": [
        0.00085699162445962429,
        0.00082333461614325643
      ],
      "type": "VEC2"
    },
    {
      "bufferView": 0,
      "componentType": 5125,
      "count": 73995,
      "max": [
        13066
      ],
      "min": [
        0
      ],
      "type": "SCALAR"
    }
  ],
  "asset": {
    "extras": {
      "author": "3dhdscan (https://sketchfab.com/3dhdscan)",
      "license": "CC-BY-4.0 (http://creativecommons.org/licenses/by/4.0/)",
      "source": "https://sketchfab.com/models/64f4f8752469439bb3af01819ab07026",
      "title": "Egg - statue"
    },
    "generator": "Sketchfab-3.18.7",
    "version": "2.0"
  },
  "bufferViews": [
    {
      "buffer": 0,
      "byteLength": 295980,
      "byteOffset": 0,
      "name": "floatBufferViews",
      "target": 34963
    },
    {
      "buffer": 0,
      "byteLength": 104536,
      "byteOffset": 295980,
      "byteStride": 8,
      "name": "floatBufferViews",
      "target": 34962
    },
    {
      "buffer": 0,
      "byteLength": 313608,
      "byteOffset": 400516,
      "byteStride": 12,
      "name": "floatBufferViews",
      "target": 34962
    },
    {
      "buffer": 0,
      "byteLength": 209072,
      "byteOffset": 714124,
      "byteStride": 16,
      "name": "floatBufferViews",
      "target": 34962
    }
  ],
  "buffers": [
    {
      "byteLength": 923196,
      "uri": "Statue_Egg_scene.bin"
    }
  ],
  "images": [
    {
      "uri": "Statue_Egg_Scene_-_Root_normal.jpeg"
    },
    {
      "uri": "Statue_Egg_Scene_-_Root_baseColor.jpeg"
    }
  ],
  "materials": [
    {
      "doubleSided": true,
      "emissiveFactor": [
        0,
        0,
        0
      ],
      "name": "Scene_-_Root",
      "normalTexture": {
        "index": 0,
        "scale": 1,
        "texCoord": 0
      },
      "pbrMetallicRoughness": {
        "baseColorFactor": [
          1,
          1,
          1,
          1
        ],
        "baseColorTexture": {
          "index": 1,
          "texCoord": 0
        },
        "metallicFactor": 0,
        "roughnessFactor": 0.76391006100000003
      }
    }
  ],
  "meshes": [
    {
      "name": "socha_vajicko_brno__0",
      "primitives": [
        {
          "attributes": {
            "NORMAL": 1,
            "POSITION": 0,
            "TANGENT": 2,
            "TEXCOORD_0": 3
          },
          "indices": 4,
          "material": 0,
          "mode": 4
        }
      ]
    }
  ],
  "nodes": [
    {
      "children": [
        1
      ],
      "name": "RootNode (gltf orientation matrix)",
      "rotation": [
        -0.70710678118654746,
        -0,
        -0,
        0.70710678118654757
      ]
    },
    {
      "children": [
        2
      ],
      "name": "RootNode (model correction matrix)"
    },
    {
      "children": [
        3
      ],
      "matrix": [
        1,
        0,
        0,
        0,
        0,
        0,
        1,
        0,
        0,
        -1,
        0,
        0,
        0,
        0,
        0,
        1
      ],
      "name": "socha_vajicko_brno.FBX"
    },
    {
      "children": [
        4
      ],
      "name": "RootNode"
    },
    {
      "children": [
        5
      ],
      "matrix": [
        1,
        0,
        0,
        0,
        0,
        2.2204460492503131e-16,
        -1,
        0,
        0,
        1,
        2.2204460492503131e-16,
        0,
        0,
        -14.602778434753418,
        -6.3830771068751346e-07,
        1
      ],
      "name": "socha_vajicko_brno"
    },
    {
      "mesh": 0,
      "name": "socha_vajicko_brno__0"
    }
  ],
  "samplers": [
    {
      "magFilter": 9729,
      "minFilter": 9987,
      "wrapS": 10497,
      "wrapT": 10497
    }
  ],
  "scene": 0,
  "scenes": [
    {
      "name": "OSG_Scene",
      "nodes": [
        0
      ]
    }
  ],
  "textures": [
    {
      "sampler": 0,
      "source": 0
    },
    {
      "sampler": 0,
      "source": 1
    }
  ]
}

