{
  "accessors": [
    {
      "bufferView": 1,
      "componentType": 5126,
      "count": 5353,
      "max": [
        1.0171173810958862,
        3.9199926853179932,
        1.0171175003051758
      ],
      "min": [
        -1.0171176195144653,
        -0.98709267377853394,
        -1.0171177387237549
      ],
      "type": "VEC3"
    },
    {
      "bufferView": 1,
      "byteOffset": 64236,
      "componentType": 5126,
      "count": 5353,
      "max": [
        0.99980765581130981,
        1,
        0.99980759620666504
      ],
      "min": [
        -0.99980753660202026,
        -1,
        -0.99980753660202026
      ],
      "type": "VEC3"
    },
    {
      "bufferView": 2,
      "componentType": 5126,
      "count": 5353,
      "max": [
        1,
        0.96903306245803833,
        1,
        1
      ],
      "min": [
        -1,
        -0.98150515556335449,
        -1,
        1
      ],
      "type": "VEC4"
    },
    {
      "bufferView": 0,
      "componentType": 5125,
      "count": 15648,
      "max": [
        5352
      ],
      "min": [
        0
      ],
      "type": "SCALAR"
    }
  ],
  "asset": {
    "extras": {
      "author": "Alex321432 (https://sketchfab.com/killercws321432)",
      "license": "CC-BY-4.0 (http://creativecommons.org/licenses/by/4.0/)",
      "source": "https://sketchfab.com/models/480cfc5b09ce4a1bb6b262e3686077c7",
      "title": "Wine Glass"
    },
    "generator": "Sketchfab-3.18.5",
    "version": "2.0"
  },
  "bufferViews": [
    {
      "buffer": 0,
      "byteLength": 62592,
      "byteOffset": 0,
      "name": "floatBufferViews",
      "target": 34963
    },
    {
      "buffer": 0,
      "byteLength": 128472,
      "byteOffset": 62592,
      "byteStride": 12,
      "name": "floatBufferViews",
      "target": 34962
    },
    {
      "buffer": 0,
      "byteLength": 85648,
      "byteOffset": 191064,
      "byteStride": 16,
      "name": "floatBufferViews",
      "target": 34962
    }
  ],
  "buffers": [
    {
      "byteLength": 276712,
      "uri": "wineglass.bin"
    }
  ],
  "extensionsRequired": [
    "KHR_materials_pbrSpecularGlossiness"
  ],
  "extensionsUsed": [
    "KHR_materials_pbrSpecularGlossiness"
  ],
  "materials": [
    {
      "doubleSided": false,
      "emissiveFactor": [
        0,
        0,
        0
      ],
      "extensions": {
        "KHR_materials_pbrSpecularGlossiness": {
          "diffuseFactor": [
            0,
            0,
            0,
            1
          ],
          "glossinessFactor": 1,
          "specularFactor": [
            0.1053734756,
            0.1053734756,
            0.1053734756
          ]
        }
      },
      "name": "lambert2"
    }
  ],
  "meshes": [
    {
      "name": "pCylinder1_lambert2_0",
      "primitives": [
        {
          "attributes": {
            "NORMAL": 1,
            "POSITION": 0,
            "TANGENT": 2
          },
          "indices": 3,
          "material": 0,
          "mode": 4
        }
      ]
    }
  ],
  "nodes": [
    {
      "children": [
        1
      ],
      "name": "RootNode (gltf orientation matrix)",
      "rotation": [
        -0.70710678118654746,
        -0,
        -0,
        0.70710678118654757
      ]
    },
    {
      "children": [
        2
      ],
      "name": "RootNode (model correction matrix)"
    },
    {
      "children": [
        3
      ],
      "matrix": [
        1,
        0,
        0,
        0,
        0,
        0,
        1,
        0,
        0,
        -1,
        0,
        0,
        0,
        0,
        0,
        1
      ],
      "name": "840b12a3d748473ba497e96b8b72c16e.fbx"
    },
    {
      "children": [
        4
      ],
      "name": "RootNode"
    },
    {
      "children": [
        5
      ],
      "matrix": [
        1,
        0,
        0,
        0,
        0,
        1,
        0,
        0,
        0,
        0,
        1,
        0,
        0,
        0.98827731609344482,
        0,
        1
      ],
      "name": "pCylinder1"
    },
    {
      "mesh": 0,
      "name": "pCylinder1_lambert2_0"
    }
  ],
  "scene": 0,
  "scenes": [
    {
      "name": "OSG_Scene",
      "nodes": [
        0
      ]
    }
  ]
}

